<svg width="40" height="40" viewBox="0 0 40 40" fill="none" xmlns="http://www.w3.org/2000/svg">
<path fill-rule="evenodd" clip-rule="evenodd" d="M8 3H32C34.7614 3 37 5.23858 37 8V32C37 34.7614 34.7614 37 32 37H8C5.23858 37 3 34.7614 3 32V8C3 5.23858 5.23858 3 8 3ZM0 8C0 3.58172 3.58172 0 8 0H32C36.4183 0 40 3.58172 40 8V32C40 36.4183 36.4183 40 32 40H8C3.58172 40 0 36.4183 0 32V8ZM28.7148 13.629L18.5 23.8438L12.7852 18.129C12.3947 17.7385 11.7615 17.7385 11.371 18.129L10.629 18.871C10.2385 19.2615 10.2385 19.8947 10.629 20.2852L17.4219 27.0781L17.8088 27.4482C18.1954 27.818 18.8046 27.818 19.1912 27.4482L19.5781 27.0781L30.871 15.7852C31.2615 15.3947 31.2615 14.7615 30.871 14.371L30.129 13.629C29.7385 13.2385 29.1053 13.2385 28.7148 13.629Z" fill="#CC6AFF"/>
</svg>
