<svg width="24" height="24" viewBox="0 0 24 24" fill="none" xmlns="http://www.w3.org/2000/svg">
<path d="M17.75 21H6.25C5.69772 21 5.25 20.5523 5.25 20V4C5.25 3.44772 5.69772 3 6.25 3H17.75C18.3023 3 18.75 3.44772 18.75 4V5.25C18.75 5.66421 18.4142 6 18 6C17.5858 6 17.25 5.66421 17.25 5.25V4.5H6.75V19.5H17.25V18C17.25 17.5858 17.5858 17.25 18 17.25C18.4142 17.25 18.75 17.5858 18.75 18V19.5V20C18.75 20.5523 18.3023 21 17.75 21Z" fill="black"/>
<path d="M17.534 7.9632L20.5984 11.1837C20.826 11.4339 20.826 11.8161 20.5984 12.0663L17.534 15.2868C17.2943 15.5388 16.8924 15.5388 16.6526 15.2868C16.4291 15.0519 16.4291 14.683 16.6526 14.4481L18.7546 12.239L12.614 12.239C12.2749 12.239 12 11.9641 12 11.625C12 11.2859 12.2749 11.011 12.614 11.011L18.7546 11.011L16.6526 8.80192C16.4291 8.56702 16.4291 8.1981 16.6526 7.9632C16.8924 7.71119 17.2943 7.71119 17.534 7.9632Z" fill="black"/>
</svg>
