<svg width="18" height="15" viewBox="0 0 18 15" fill="none" xmlns="http://www.w3.org/2000/svg">
<path d="M4.625 0.5C4.27982 0.5 4 0.779822 4 1.125V1.125H1.5V1.125C1.15482 1.125 0.875 1.40482 0.875 1.75V1.75V4.25V4.875V14.25V14.25C0.875 14.5952 1.15482 14.875 1.5 14.875V14.875H16.5V14.875C16.8452 14.875 17.125 14.5952 17.125 14.25V14.25V4.25V3.625V1.75V1.75C17.125 1.40482 16.8452 1.125 16.5 1.125V1.125H14V1.125C14 0.779822 13.7202 0.5 13.375 0.5V0.5C13.0298 0.5 12.75 0.779822 12.75 1.125V1.125H5.25V1.125C5.25 0.779822 4.97018 0.5 4.625 0.5V0.5ZM2.125 2.375H4V2.375C4 2.72018 4.27982 3 4.625 3V3C4.97018 3 5.25 2.72018 5.25 2.375V2.375H12.75V2.375C12.75 2.72018 13.0298 3 13.375 3V3C13.7202 3 14 2.72018 14 2.375V2.375H15.875V3.625H2.125V2.375ZM2.125 4.875H15.875V13.625H2.125V4.875ZM10.25 6.75C9.90482 6.75 9.625 7.02982 9.625 7.375V7.375V11.125V11.125C9.625 11.4702 9.90482 11.75 10.25 11.75V11.75H14V11.75C14.3452 11.75 14.625 11.4702 14.625 11.125V11.125V7.375V7.375C14.625 7.02982 14.3452 6.75 14 6.75V6.75H10.25V6.75ZM4.3 7.375C4.13431 7.375 4 7.50931 4 7.675V8.325C4 8.49069 4.13431 8.625 4.3 8.625H4.95C5.11569 8.625 5.25 8.49069 5.25 8.325V7.675C5.25 7.50931 5.11569 7.375 4.95 7.375H4.3ZM6.8 7.375C6.63431 7.375 6.5 7.50931 6.5 7.675V8.325C6.5 8.49069 6.63431 8.625 6.8 8.625H7.45C7.61569 8.625 7.75 8.49069 7.75 8.325V7.675C7.75 7.50931 7.61569 7.375 7.45 7.375H6.8ZM10.875 8H13.375V10.5H10.875V8ZM4.3 9.875C4.13431 9.875 4 10.0093 4 10.175V10.825C4 10.9907 4.13431 11.125 4.3 11.125H4.95C5.11569 11.125 5.25 10.9907 5.25 10.825V10.175C5.25 10.0093 5.11569 9.875 4.95 9.875H4.3ZM6.8 9.875C6.63431 9.875 6.5 10.0093 6.5 10.175V10.825C6.5 10.9907 6.63431 11.125 6.8 11.125H7.45C7.61569 11.125 7.75 10.9907 7.75 10.825V10.175C7.75 10.0093 7.61569 9.875 7.45 9.875H6.8Z" fill="#A442F1"/>
</svg>
