<svg width="89" height="89" viewBox="0 0 89 89" fill="none" xmlns="http://www.w3.org/2000/svg">
<g opacity="0.3">
<path d="M74.2412 25.439H64.5253L64.377 24.4378C62.8566 14.8703 54.587 7.4165 44.5374 7.4165C34.4878 7.4165 26.1812 14.8332 24.6607 24.4378L24.5124 25.439H14.7595C10.7174 25.439 7.41699 28.9619 7.41699 33.2265V73.7957C7.41699 78.0973 10.7174 81.5832 14.7595 81.5832H74.2412C78.2832 81.5832 81.5837 78.0603 81.5837 73.7957V33.2265C81.5837 28.9248 78.2832 25.439 74.2412 25.439V25.439ZM31.1503 23.8444C32.8191 18.0965 38.2332 13.9803 44.5003 13.9803C50.7674 13.9803 56.1816 18.0965 57.8503 23.8444L58.2953 25.439H30.6682L31.1132 23.8444H31.1503ZM76.2437 76.0948H12.757V31.1128H76.2437V76.1319V76.0948Z" fill="black"/>
</g>
</svg>

