<svg width="89" height="89" viewBox="0 0 89 89" fill="none" xmlns="http://www.w3.org/2000/svg">
<g opacity="0.3">
<path fill-rule="evenodd" clip-rule="evenodd" d="M22.2503 12.979H66.7503C71.8705 12.979 76.0212 17.1297 76.0212 22.2498V66.7498C76.0212 71.87 71.8705 76.0207 66.7503 76.0207H22.2503C17.1302 76.0207 12.9795 71.87 12.9795 66.7498V22.2498C12.9795 17.1297 17.1302 12.979 22.2503 12.979ZM7.41699 22.2498C7.41699 14.0576 14.0581 7.4165 22.2503 7.4165H66.7503C74.9426 7.4165 81.5837 14.0576 81.5837 22.2498V66.7498C81.5837 74.9421 74.9426 81.5832 66.7503 81.5832H22.2503C14.0581 81.5832 7.41699 74.9421 7.41699 66.7498V22.2498ZM61.2629 32.0829L41.7191 51.6268L30.519 40.4267C30.1284 40.0361 29.4953 40.0361 29.1047 40.4267L26.5209 43.0105C26.1304 43.401 26.1304 44.0342 26.5209 44.4247L39.7201 57.6239L41.0279 58.8748C41.4145 59.2446 42.0237 59.2446 42.4103 58.8748L43.7181 57.6239L65.261 36.081C65.6515 35.6904 65.6515 35.0573 65.261 34.6668L62.6772 32.0829C62.2866 31.6924 61.6535 31.6924 61.2629 32.0829Z" fill="black"/>
</g>
</svg>
