<svg width="11" height="12" viewBox="0 0 11 12" fill="none" xmlns="http://www.w3.org/2000/svg">
<path d="M0.266482 11.2338C0.597571 11.5649 1.13437 11.5649 1.46546 11.2338L5.50032 7.19894L9.53519 11.2338C9.86628 11.5649 10.4031 11.5649 10.7342 11.2338C11.0653 10.9027 11.0653 10.3659 10.7342 10.0348L6.6993 5.99996L10.7342 1.9651C11.0653 1.63401 11.0653 1.09721 10.7342 0.766116C10.4031 0.435027 9.86628 0.435027 9.53519 0.766116L5.50032 4.80098L1.46546 0.766115C1.13437 0.435026 0.597571 0.435027 0.266482 0.766116C-0.0646071 1.0972 -0.0646071 1.63401 0.266482 1.9651L4.30135 5.99996L0.266482 10.0348C-0.0646074 10.3659 -0.0646071 10.9027 0.266482 11.2338Z" fill="#E53939"/>
</svg>
