<svg width="32" height="32" viewBox="0 0 32 32" fill="none" xmlns="http://www.w3.org/2000/svg">
<rect width="32" height="32" rx="8" fill="#E53939"/>
<path d="M11.2895 20.7105C11.5875 21.0084 12.0706 21.0084 12.3686 20.7105L16 17.0791L19.6314 20.7105C19.9294 21.0084 20.4125 21.0084 20.7105 20.7105C21.0084 20.4125 21.0084 19.9294 20.7105 19.6314L17.0791 16L20.7105 12.3686C21.0084 12.0706 21.0084 11.5875 20.7105 11.2895C20.4125 10.9916 19.9294 10.9916 19.6314 11.2895L16 14.9209L12.3686 11.2895C12.0706 10.9916 11.5875 10.9916 11.2895 11.2895C10.9916 11.5875 10.9916 12.0706 11.2895 12.3686L14.9209 16L11.2895 19.6314C10.9916 19.9294 10.9916 20.4125 11.2895 20.7105Z" fill="white"/>
</svg>
