<svg width="25" height="25" viewBox="0 0 25 25" fill="none" xmlns="http://www.w3.org/2000/svg">
<path d="M4.73767 6.32593C4.32376 6.32593 3.98822 6.66563 3.98822 7.08466C3.98822 7.50369 4.32376 7.84339 4.73767 7.84339H21.2256C21.6395 7.84339 21.975 7.50369 21.975 7.08466C21.975 6.66563 21.6395 6.32593 21.2256 6.32593H4.73767ZM4.73767 11.637C4.32376 11.637 3.98822 11.9767 3.98822 12.3958C3.98822 12.8148 4.32376 13.1545 4.73767 13.1545H21.2256C21.6395 13.1545 21.975 12.8148 21.975 12.3958C21.975 11.9767 21.6395 11.637 21.2256 11.637H4.73767ZM4.73767 16.9481C4.32376 16.9481 3.98822 17.2879 3.98822 17.7069C3.98822 18.1259 4.32376 18.4656 4.73767 18.4656H21.2256C21.6395 18.4656 21.975 18.1259 21.975 17.7069C21.975 17.2879 21.6395 16.9481 21.2256 16.9481H4.73767Z" fill="black"/>
</svg>
