<svg width="17" height="18" viewBox="0 0 17 18" fill="none" xmlns="http://www.w3.org/2000/svg">
<path d="M11.6248 0.875C8.85608 0.875 6.62478 3.1063 6.62478 5.875C6.62478 6.02158 6.64791 6.22054 6.66384 6.40234L1.31228 11.7539C0.082104 12.9841 0.082104 14.9573 1.31228 16.1875C2.54246 17.4177 4.5157 17.4177 5.74588 16.1875L11.0974 10.8359C11.2792 10.8519 11.4782 10.875 11.6248 10.875C14.3935 10.875 16.6248 8.6437 16.6248 5.875C16.6248 5.02083 16.4048 4.22902 16.0388 3.57031C15.844 3.2099 15.352 3.14389 15.0623 3.43359L12.367 6.10938L11.3904 5.13281L14.0662 2.4375C14.3559 2.1478 14.2899 1.65576 13.9295 1.46094C13.2708 1.09499 12.4789 0.875 11.6248 0.875ZM11.6248 2.125C11.9285 2.125 12.1549 2.25535 12.4256 2.32031L10.0623 4.68359L10.0526 4.69325C9.81146 4.93442 9.81582 5.32675 10.0623 5.5625L11.9373 7.4375C12.173 7.68397 12.5654 7.68832 12.8065 7.44716L12.8162 7.4375L15.1795 5.07422C15.2444 5.34485 15.3748 5.57129 15.3748 5.875C15.3748 7.9813 13.7311 9.625 11.6248 9.625C11.3748 9.625 11.1742 9.62466 11.0193 9.58594L10.6873 9.48828L10.4334 9.74219L4.86697 15.3086C4.09715 16.0784 2.96101 16.0784 2.19119 15.3086L2.17166 15.2891C1.42191 14.5196 1.4281 13.3959 2.19119 12.6328L7.75759 7.06641L8.0115 6.8125L7.91384 6.48047C7.87512 6.32558 7.87478 6.125 7.87478 5.875C7.87478 3.7687 9.51848 2.125 11.6248 2.125Z" fill="#A442F1"/>
</svg>
