<svg width="14" height="16" viewBox="0 0 14 16" fill="none" xmlns="http://www.w3.org/2000/svg">
<path d="M7.00004 0.5C4.43061 0.5 2.33337 2.6449 2.33337 5.27273C2.33337 6.90436 3.14696 8.35305 4.37504 9.21449C2.18021 10.1694 0.601763 12.2999 0.364398 14.834C0.330061 15.2006 0.631851 15.5 1.00004 15.5C1.36823 15.5 1.66257 15.2001 1.70478 14.8344C2.01912 12.1108 4.24285 10.0455 7.00004 10.0455C9.75723 10.0455 11.981 12.1108 12.2953 14.8344C12.3375 15.2001 12.6319 15.5 13 15.5C13.3682 15.5 13.67 15.2006 13.6357 14.834C13.3983 12.2999 11.8199 10.1694 9.62504 9.21449C10.8531 8.35305 11.6667 6.90436 11.6667 5.27273C11.6667 2.6449 9.56947 0.5 7.00004 0.5ZM7.00004 1.86364C8.84889 1.86364 10.3334 3.38186 10.3334 5.27273C10.3334 7.16359 8.84889 8.68182 7.00004 8.68182C5.1512 8.68182 3.66671 7.16359 3.66671 5.27273C3.66671 3.38186 5.1512 1.86364 7.00004 1.86364Z" fill="black"/>
</svg>
