<svg width="14" height="16" viewBox="0 0 14 16" fill="none" xmlns="http://www.w3.org/2000/svg">
<path d="M7.00016 0.5C4.43073 0.5 2.3335 2.6449 2.3335 5.27273C2.3335 6.90436 3.14708 8.35305 4.37516 9.21449C2.18033 10.1694 0.601885 12.2999 0.36452 14.834C0.330183 15.2006 0.631973 15.5 1.00016 15.5C1.36835 15.5 1.66269 15.2001 1.70491 14.8344C2.01924 12.1108 4.24298 10.0455 7.00016 10.0455C9.75735 10.0455 11.9811 12.1108 12.2954 14.8344C12.3376 15.2001 12.632 15.5 13.0002 15.5C13.3684 15.5 13.6701 15.2006 13.6358 14.834C13.3984 12.2999 11.82 10.1694 9.62516 9.21449C10.8532 8.35305 11.6668 6.90436 11.6668 5.27273C11.6668 2.6449 9.56959 0.5 7.00016 0.5ZM7.00016 1.86364C8.84901 1.86364 10.3335 3.38186 10.3335 5.27273C10.3335 7.16359 8.84901 8.68182 7.00016 8.68182C5.15132 8.68182 3.66683 7.16359 3.66683 5.27273C3.66683 3.38186 5.15132 1.86364 7.00016 1.86364Z" fill="#A442F1"/>
</svg>
