<svg width="89" height="89" viewBox="0 0 89 89" fill="none" xmlns="http://www.w3.org/2000/svg">
<g opacity="0.3">
<path fill-rule="evenodd" clip-rule="evenodd" d="M22.2503 12.979H66.7503C71.8705 12.979 76.0212 17.1297 76.0212 22.2498V66.7498C76.0212 71.87 71.8705 76.0207 66.7503 76.0207H22.2503C17.1302 76.0207 12.9795 71.87 12.9795 66.7498V22.2498C12.9795 17.1297 17.1302 12.979 22.2503 12.979ZM7.41699 22.2498C7.41699 14.0576 14.0581 7.4165 22.2503 7.4165H66.7503C74.9426 7.4165 81.5837 14.0576 81.5837 22.2498V66.7498C81.5837 74.9421 74.9426 81.5832 66.7503 81.5832H22.2503C14.0581 81.5832 7.41699 74.9421 7.41699 66.7498V22.2498ZM33.2766 30.6923L30.6928 33.2761C30.3023 33.6667 30.3023 34.2998 30.6928 34.6903L40.5023 44.4998L30.6928 54.3093C30.3023 54.6999 30.3023 55.333 30.6928 55.7235L33.2766 58.3074C33.6671 58.6979 34.3003 58.6979 34.6908 58.3074L44.5003 48.4979L54.3098 58.3074C54.7003 58.6979 55.3335 58.6979 55.724 58.3074L58.3079 55.7235C58.6984 55.333 58.6984 54.6999 58.3079 54.3093L48.4984 44.4998L58.3079 34.6903C58.6984 34.2998 58.6984 33.6667 58.3079 33.2761L55.724 30.6923C55.3335 30.3018 54.7003 30.3018 54.3098 30.6923L44.5003 40.5018L34.6908 30.6923C34.3003 30.3018 33.6671 30.3018 33.2766 30.6923Z" fill="black"/>
</g>
</svg>
