<svg width="24" height="24" viewBox="0 0 24 24" fill="none" xmlns="http://www.w3.org/2000/svg">
<path d="M5.73164 18.2929C6.12216 18.6834 6.75533 18.6834 7.14585 18.2929L12 13.4388L16.8541 18.2929C17.2446 18.6834 17.8778 18.6834 18.2683 18.2929L18.2929 18.2683C18.6834 17.8778 18.6834 17.2446 18.2929 16.8541L13.4388 12L18.2929 7.14588C18.6834 6.75536 18.6834 6.12219 18.2929 5.73167L18.2683 5.70711C17.8778 5.31658 17.2446 5.31658 16.8541 5.70711L12 10.5612L7.14585 5.70711C6.75533 5.31658 6.12216 5.31658 5.73164 5.70711L5.70708 5.73167C5.31655 6.12219 5.31655 6.75536 5.70708 7.14588L10.5612 12L5.70708 16.8541C5.31655 17.2446 5.31655 17.8778 5.70708 18.2683L5.73164 18.2929Z" fill="black"/>
</svg>
